<?xml version="1.0" encoding="utf-8"?>
<!-- Generator: Adobe Illustrator 24.1.2, SVG Export Plug-In . SVG Version: 6.00 Build 0)  -->
<svg version="1.1" id="Capa_1" xmlns="http://www.w3.org/2000/svg" xmlns:xlink="http://www.w3.org/1999/xlink" x="0px" y="0px"
	 viewBox="0 0 350 350" style="enable-background:new 0 0 350 350;" xml:space="preserve">
<style type="text/css">
	.st0{fill:#BA9C53;}
</style>
<g>
	<path class="st0" d="M2.5,28.57c2.42-5.86,6.85-7.88,13.07-7.72c11.23,0.29,22.46,0.05,33.7,0.09c13.7,0.05,22.31,6.72,25.89,19.98
		c3.53,13.1,7.11,26.19,10.5,39.32c0.62,2.38,1.56,3.19,4.07,3.2c49.42,0.13,98.84,0.35,148.26,0.56
		c29.43,0.13,58.86,0.25,88.28,0.43c14.39,0.09,23.77,11.4,20.61,25.42c-7.99,35.45-16.18,70.85-24.51,106.22
		c-2.75,11.67-12.41,18.96-24.57,19.27c-4.27,0.11-8.54,0.03-12.8,0.02c-59.76-0.03-119.52-0.07-179.27-0.09
		c-1.57,0-3.15-0.01-4.71,0.16c-5.86,0.63-9.98,5.31-9.97,11.22c0,5.9,4.17,10.53,10.06,11.11c1.56,0.15,3.14,0.13,4.71,0.13
		c65.82,0.01,131.65,0,197.47,0.01c8.01,0,12.77,4.58,11.97,11.5c-0.46,3.94-2.9,6.43-6.35,8.21c6.66,18.29,3.41,33.95-12.99,45.37
		c-11.93,8.31-28.15,7.53-39.83-1.02c-13.36-9.78-17.07-23.37-11.74-43.58c-20.98,0-41.88,0-62.92,0
		c6.27,17.95,2.88,33.46-13.17,44.43c-12.47,8.52-26.17,8.43-38.62-0.04c-15.96-10.86-19.28-26.32-13.04-44.65
		c-4.84,0-9.4,0.06-13.95-0.01c-16.41-0.26-29.09-11.14-31.6-27.06c-2.71-17.21,9.96-33.81,27.29-35.78
		c0.77-0.09,1.53-0.2,2.55-0.33c-0.28-1.31-0.48-2.5-0.79-3.66c-14.82-55-29.64-110-44.47-165c-1.2-4.45-1.98-5.07-6.52-5.07
		c-11.23-0.01-22.47-0.15-33.7,0.05c-6.21,0.12-10.66-2-12.93-7.98C2.5,31.71,2.5,30.14,2.5,28.57z M92.09,103.76
		c4.02,14.98,7.92,29.35,11.71,43.75c0.52,1.99,1.64,2.25,3.39,2.24c11.22-0.06,22.43-0.02,33.65-0.04c0.84,0,1.68-0.19,2.72-0.32
		c-0.14-1.59-0.2-2.92-0.38-4.24c-1.71-12.77-3.52-25.54-5.09-38.33c-0.29-2.33-1.1-2.97-3.31-2.96
		c-10.32,0.04-20.64-0.06-30.96-0.1C100.06,103.75,96.28,103.76,92.09,103.76z M223.2,104.38c0,15.1,0,30.04,0,44.99
		c0.53,0.14,0.84,0.31,1.15,0.31c11.66,0.02,23.33-0.01,34.99,0.07c2,0.01,2.4-0.97,2.62-2.63c1.29-10.12,2.66-20.22,3.98-30.33
		c0.53-4.04,0.98-8.09,1.51-12.41C252.5,104.38,238.05,104.38,223.2,104.38z M202.49,149.56c0-15.36,0-30.32,0-45.33
		c-14.9,0-29.54,0-44.38,0c2.05,15.29,4.07,30.33,6.08,45.33C177.26,149.56,189.78,149.56,202.49,149.56z M327.43,104.52
		c-12.91,0-25.36-0.04-37.81,0.1c-0.68,0.01-1.8,1.45-1.94,2.34c-1.21,8.1-2.26,16.22-3.32,24.33c-0.78,5.98-1.52,11.98-2.31,18.21
		c11.84,0,23.34,0,34.98,0C320.47,134.64,323.87,119.92,327.43,104.52z M152.27,215c-0.11-1.47-0.15-2.69-0.31-3.89
		c-1.71-12.77-3.52-25.52-5.1-38.31c-0.29-2.35-1.13-2.92-3.33-2.9c-10.31,0.1-20.63,0.04-30.95,0.06c-0.74,0-1.48,0.18-2.61,0.32
		c3.79,13.93,7.42,27.65,11.37,41.29c0.41,1.43,2.69,3.23,4.16,3.28C134.32,215.15,143.15,215,152.27,215z M223.18,215.14
		c9.54,0,18.83,0.04,28.11-0.09c0.65-0.01,1.76-1.25,1.87-2.04c1.88-13.43,3.64-26.88,5.4-40.32c0.11-0.83,0.01-1.68,0.01-2.56
		c-11.95,0-23.57,0-35.39,0C223.18,185.07,223.18,199.83,223.18,215.14z M166.91,170.11c1.91,14.53,3.79,28.64,5.6,42.75
		c0.24,1.86,1.13,2.33,2.9,2.32c7.63-0.08,15.26-0.03,22.89-0.03c1.41,0,2.83,0,4.18,0c0-15.35,0-30.2,0-45.04
		C190.55,170.11,178.92,170.11,166.91,170.11z M279.29,170.12c-1.97,14.96-3.93,29.8-5.93,44.96c8.54,0,16.7,0.12,24.86-0.06
		c3-0.07,4.29-2.35,4.91-5.14c2.22-9.95,4.54-19.87,6.82-29.8c0.74-3.23,1.48-6.47,2.27-9.96
		C301.03,170.12,290.31,170.12,279.29,170.12z M148.88,308.44c8.44,0.04,15.29-6.71,15.3-15.07c0.01-8.29-6.97-15.26-15.26-15.22
		c-8.23,0.04-14.98,6.77-15.05,15.01C133.8,301.66,140.42,308.4,148.88,308.44z M276.6,308.44c8.48,0.1,15.27-6.51,15.36-14.96
		c0.1-8.34-6.74-15.29-15.08-15.34c-8.18-0.05-14.99,6.63-15.18,14.89C261.52,301.46,268.17,308.34,276.6,308.44z"/>
</g>
</svg>
